<svg version="1" xmlns="http://www.w3.org/2000/svg" width="380" height="380" viewBox="0 0 285.000000 285.000000"><path d="M.2 141.7l.3 136.6H60c32.7-.1 59.8-.2 60.3-.2.4-.1.7-15 .7-33.1v-33l-3.2-.1H66.5V71.5l26-.1c14.3-.1 26.6-.2 27.3-.3.9-.1 1.2-7.4 1.2-33.1V5H0l.2 136.7zM147 38c0 21.2.4 33 1 33.1.6.1 1.8.2 2.8.3 31.7 3.2 53.9 21.4 62 50.9 2.6 9.6 2.3 29.8-.6 40.2-7.7 27-28.5 44.9-56.7 48.9-1.6.2-4.2.5-5.7.5l-2.8.1v66.2l9.3-.7c14.3-1.1 18.6-1.7 29.4-4.6C234.6 260 268.6 223 279.1 171c1.8-9.3 2.3-14.8 2.3-28.5 0-9.6-.5-20.1-1.2-24-.7-3.9-1.5-8.1-1.7-9.5-.8-4.6-4.2-15.4-7-22.5-9.6-23.9-26.5-45-47.7-59.3-17.5-11.9-43.7-20.2-68-21.7L147 5v33z"/></svg>