<?xml version="1.0" ?><svg id="Layer_1" style="enable-background:new 0 0 52 52;" version="1.1" viewBox="0 0 52 52" xml:space="preserve" xmlns="http://www.w3.org/2000/svg" xmlns:xlink="http://www.w3.org/1999/xlink"><style type="text/css">
	.st0{fill:#231F20;}
</style><g><g><path class="st0" d="M25.0311661,9.2850361c0.7345524,1.7950039,1.1432743,3.6090927,1.6688614,5.461586    c0.1758308,0.6197357,0.1870728,1.3255615,0.7856236,1.7106686c0.3906517,0.2513466,0.7893581,0.2319565,1.2184658,0.2380619    c1.8077908,0.0257206,3.7882118-0.775568,5.6633415-0.8162937c-0.375-0.375-0.75-0.75-1.125-1.125    c-0.127552,1.0817337-3.7991982,2.7595901-4.3263931,4.3908501c-0.6253166,1.9348698,1.7372684,3.6762257,1.6307545,5.6786098    c0.2753086-0.3616047,0.5506191-0.7232094,0.8259296-1.0848141c-1.3793297,0.2517948-3.3629169-2.0496597-3.9746494-2.9289455    c-0.4464626-0.6417332-1.1726112-0.7042885-1.7668991-0.2276859c-1.7768936,1.4250278-3.001646,2.9858932-5.3499451,3.567173    c0.4746895,0.3616047,0.949379,0.7232094,1.4240685,1.0848141c0.0502377-2.6861153,0.9917946-4.0429382,2.7701797-5.7693005    c0.6023693-0.5847492,0.3185635-1.6706276-0.4964256-1.8803101c-2.5978622-0.6683807-4.1483879-1.8101854-5.9378529-3.7069349    c-0.2651653,0.6401644-0.5303307,1.2803297-0.795496,1.920495c2.0466347-0.1467295,5.5617828,0.6521778,7.3484707-0.5627356    c1.6766129-1.1400633,1.8011703-4.1286287,2.2170124-5.8610516c0.3377934-1.407259-1.8312702-2.0077524-2.1696281-0.5981388    c-0.4007416,1.6695108-0.3715706,3.9218721-2.2671947,4.6663599c-1.205822,0.4735746-3.7755547,0.0085583-5.1286602,0.105566    c-0.9659119,0.0692492-1.4918232,1.1824188-0.7954941,1.920495c0.9610558,1.0186758,1.9147758,2.3451185,3.082777,3.1400652    c1.2425652,0.8456936,2.4219513,0.7786312,3.8479271,1.1455078c-0.1654758-0.62677-0.3309517-1.25354-0.4964256-1.8803101    c-2.3749256,2.3054562-3.3662701,3.9961739-3.4291897,7.3602924c-0.0139904,0.7480755,0.7286568,1.2569504,1.4240704,1.0848141    c2.8251457-0.6993141,4.1663208-2.4003296,6.3427963-4.1458111c-0.5889664-0.0758953-1.1779327-0.1517906-1.7668991-0.2276859    c1.3877182,1.9946671,3.847887,4.4499416,6.5155964,3.9629555c0.4997959-0.0912361,0.8012409-0.6206665,0.8259296-1.0848141    c0.050602-0.9512672-0.33321-1.9237728-0.6625595-2.7987289c-0.6476479-1.7205696-0.6704483-1.9753017,0.3662071-3.4407673    c0.9660034-1.365593,2.7827339-2.0552788,2.991993-3.8299637c0.0703125-0.5963097-0.5723457-1.1370039-1.125-1.125    c-0.8577042,0.0186281-1.6974068,0.0508537-2.548048,0.1555223c-0.5822735,0.0716476-2.7960949,0.7954588-3.3091755,0.6656837    c0.1581154,0.1079178,0.3162289,0.2158365,0.4743443,0.3237543c-0.1317616-0.8385706-0.3064632-1.6680984-0.5241051-2.4885826    c-0.3272781-1.2341461-0.7765789-2.4180021-1.2596798-3.5985394C26.6597786,7.3648305,24.4821815,7.9434938,25.0311661,9.2850361    L25.0311661,9.2850361z"/></g><g><path class="st0" d="M11.8504705,3.019135c9.5936537-0.0783648,19.1873055-0.1567299,28.7809601-0.2350948    c-0.375-0.375-0.75-0.75-1.125-1.125c-0.1686478,6.2911739-0.3372955,12.5823479-0.5059471,18.8735218    c-0.1024742,3.8227119,0.0300713,7.2264214-2.8906517,10.1175957c-2.299427,2.276165-6.4182587,4.2094231-9.5378914,4.3537369    C9.4321079,35.796772,13.0353603,13.4038725,12.982502,2.295352c-0.0068874-1.447438-2.2569017-1.4504306-2.25,0    c0.0247421,5.1997366,0.0494843,10.3994722,0.0742264,15.5992098c0.0166893,3.5072365-0.3040953,7.1305809,1.2206297,10.3919449    c2.801136,5.9915886,8.0712709,9.0848312,14.5445833,8.9673882c4.9297657-0.0894394,12.2517853-3.7094536,14.1680336-8.6516685    c1.2201462-3.1468773,0.4976463-7.5897465,0.5864029-10.900692c0.1433525-5.3474979,0.2867012-10.6949959,0.4300537-16.0424938    c0.016201-0.6044672-0.5285378-1.1298721-1.125-1.125C31.0377769,0.6124051,21.4441242,0.69077,11.8504705,0.7691349    C10.4033089,0.780956,10.3998909,3.0309839,11.8504705,3.019135L11.8504705,3.019135z"/></g><g><path class="st0" d="M40.7670059,7.7546649c2.6134033-0.0010867,5.2268105-0.0021739,7.8402176-0.0032606    c-0.3616066-0.27531-0.7232094-0.5506206-1.084816-0.8259306c1.4738541,5.0289702-1.8206215,15.5954628-7.0850296,17.6002789    c-1.3399048,0.5102692-0.7586365,2.6863232,0.5981407,2.1696281c3.3365936-1.2706585,5.1750298-3.92309,6.5230103-7.1445179    c1.5906487-3.8013515,3.3398857-9.1072073,2.1335068-13.2235279c-0.1393318-0.4754162-0.5848732-0.8261385-1.0848122-0.8259306    c-2.6134071,0.0010867-5.2268143,0.0021739-7.8402176,0.0032606C39.3192635,5.5052671,39.3168144,7.7552681,40.7670059,7.7546649    L40.7670059,7.7546649z"/></g><g><path class="st0" d="M11.517045,6.1632051C9.6091309,6.1691294,7.7012177,6.1750536,5.7933035,6.1809778    c-0.7023067,0.0021806-2.1993313-0.29107-2.8822391,0.2452064c-1.6326474,1.2820911-0.81615,5.5753789-0.6810389,7.2811656    c0.4026539,5.0835323,4.0771914,10.3364906,8.8929625,12.3351936c1.3359566,0.5544662,1.9185648-1.6216087,0.5981398-2.1696281    c-1.8089514-0.7507744-3.0472574-2.4247971-4.3095913-3.8355198c-1.9282155-2.1548786-2.7825942-4.0525408-2.9796977-6.9638672    c-0.0941849-1.39116-0.5796771-3.7544022,0.7254939-4.6405754c0.9809275-0.6660213,5.0649548-0.015727,6.3597126-0.0197477    C12.9646044,8.4087105,12.967391,6.1587014,11.517045,6.1632051L11.517045,6.1632051z"/></g><g><path class="st0" d="M18.1004791,46.6492004c3.1817379,0.026413,6.3634758,0.0528221,9.5452118,0.0792351    c1.4878101,0.012352,4.140913-0.3471375,5.5818825,0.067524c1.0237503,0.7057838,2.0474968,1.4115677,3.0712433,2.1173515    c-0.9282608,0.0136909-1.8565445,0.0256538-2.7848511,0.0358887c-3.0943432,0.0360336-6.1888161,0.0576744-9.2833614,0.0649185    c-1.547266,0.0036201-3.0945377,0.0040741-4.6418056,0.0004959c-0.618906-0.0020065-1.2378101-0.0040131-1.8567142-0.0060196    c-2.902813,0.3947372-2.6187878-0.3971748,0.8520737-2.3757324c1.441864,0.1285744,1.4331856-2.1222,0-2.25    c-3.0082846-0.2682571-6.5592489,2.8780479-5.6502676,6.0273972c0.1381426,0.4786224,0.5857649,0.8224525,1.0848131,0.8259277    c4.6417847,0.0323296,9.2834816,0.0404701,13.9253139,0.0123291c3.392683-0.0205688,7.7653179,0.6691284,11.0200405-0.3067322    c0.3585129-0.1074944,0.7072868-0.4026909,0.7857437-0.7857437c0.4756927-2.3224907-0.6020393-4.1946182-2.766819-5.0201988    c-2.28508-0.8714523-5.0507336-0.616375-7.4282475-0.6415558c-3.8179646-0.0404434-7.6362114-0.0633926-11.4542561-0.0950851    C16.6522942,44.3871765,16.6509323,46.6371651,18.1004791,46.6492004L18.1004791,46.6492004z"/></g><g><path class="st0" d="M22.4054089,36.2120132c0.0389729,2.8345604,0.1106396,5.6680832,0.2150116,8.500988    c0.0531826,1.4435081,2.303442,1.4505005,2.25,0c-0.104372-2.8329086-0.1760387-5.6664314-0.2150116-8.500988    C24.635519,34.765377,22.3854637,34.761261,22.4054089,36.2120132L22.4054089,36.2120132z"/></g><g><path class="st0" d="M27.6374111,36.5455856c0.0400562,2.6669006,0.0801144,5.3337975,0.1201706,8.0006981    c0.0217266,1.4465065,2.2717915,1.450779,2.25,0c-0.0400562-2.6669006-0.0801144-5.3337975-0.1201706-8.0006981    C29.8656845,35.0990829,27.6156197,35.0948067,27.6374111,36.5455856L27.6374111,36.5455856z"/></g></g></svg>