<?xml version="1.0" ?><svg id="Layer_1" style="enable-background:new 0 0 52 52;" version="1.1" viewBox="0 0 52 52" xml:space="preserve" xmlns="http://www.w3.org/2000/svg" xmlns:xlink="http://www.w3.org/1999/xlink"><style type="text/css">
	.st0{fill:#231F20;}
</style><g><g><path class="st0" d="M45.0896454,1.5182652c-3.7920952,3.9053235-7.6611176,7.7323699-11.6429062,11.4446354    c-2.6829872,2.501379-3.9518433,3.4168701-7.152504,0.855649c-1.7103462-1.3686476-3.3747425-2.8627186-5.1639328-4.1259747    c-2.0340214-1.4361162-3.6014481-2.0963435-5.8561525-0.876462c-4.0634565,2.1984854-7.8108258,7.0020609-11.2255507,10.089159    c-1.0764239,0.9731464,0.5187125,2.5603886,1.5909905,1.5909901c2.8951735-2.6173954,7.8663497-9.0663509,11.7950535-9.5632238    c4.6769028-0.5915012,7.4549408,7.0068178,11.8416176,7.8324289c2.1792393,0.4101524,4.3751945-2.91856,5.7614708-4.2115765    c3.9808502-3.7130442,7.8508987-7.5394025,11.6429024-11.4446344C47.6898956,2.0698607,46.1006012,0.4771221,45.0896454,1.5182652    L45.0896454,1.5182652z"/></g><g><path class="st0" d="M2.1656559,50.5688438c15.889926-0.1501274,31.7798176-0.1111221,47.6688156,0.117012    c1.4483643,0.0207977,1.4489708-2.2291946,0-2.25c-15.8889961-0.2281342-31.7788887-0.2671394-47.6688156-0.117012    C0.7186067,48.3325119,0.7150282,50.5825462,2.1656559,50.5688438L2.1656559,50.5688438z"/></g><g><path class="st0" d="M3.9726758,49.2381363c0.119204-2.5860825,0.2271819-25.3711834,2.4187732-25.2252026    C8.665657,24.1644173,7.5853515,46.1465912,7.5926204,48.566433c0.0043483,1.447567,2.2543569,1.4503403,2.2500005,0    c-0.0142565-4.7458305-0.028513-9.4916649-0.0427685-14.2374954c-0.010848-3.6114254,0.752449-8.1464901-0.3451519-11.6010246    c-0.1151123-0.362299-0.3974962-0.700819-0.7857447-0.7857437c-3.2626629-0.713686-5.4341879-0.5314484-5.8164339,2.7844276    C1.923932,32.7818527,2.0961447,41.1358833,1.7226758,49.2381363C1.655951,50.6857033,3.9061058,50.6823463,3.9726758,49.2381363    L3.9726758,49.2381363z"/></g><g><path class="st0" d="M17.4166832,48.9008026c0.0263691-5.7842484,0.0527363-11.5685005,0.0791054-17.3527489    c0.0117188-2.5707779,0.0234375-5.1415539,0.0351582-7.7123318c0.0208549-4.5749779,0.6595554-5.6414661,5.1812496-5.6440182    c-0.375-0.375-0.75-0.75-1.125-1.125c-0.0858955,10.7223949-0.1717911,21.4447861-0.2576866,32.1671791    c-0.0116005,1.4481773,2.2383881,1.4495735,2.25,0c0.0858955-10.722393,0.1717911-21.4447842,0.2576866-32.1671791    c0.0048695-0.6079082-0.5193787-1.1253405-1.125-1.124999c-7.2518988,0.0040913-7.3933134-0.4280281-7.426856,6.9299746    c-0.0395517,8.6763744-0.0791044,17.352747-0.1186562,26.0291233    C15.1600828,50.3488235,17.4100742,50.3506508,17.4166832,48.9008026L17.4166832,48.9008026z"/></g><g><path class="st0" d="M30.9535923,48.7310143c0.0006752-3.7656784,0.0013504-7.531353,0.0020275-11.2970314    c0.0002747-1.5406609-1.0282078-10.4728394,1.1038132-11.0808563c3.480938-0.9927063,1.8665695,6.7985878,1.822731,8.673027    c-0.1003685,4.2915154-0.0695038,8.5815048,0.0434456,12.8724518c0.0380402,1.4451256,2.2881889,1.4508095,2.25,0    c-0.1129456-4.2907867-0.1454201-8.5810814-0.0434456-12.8724518c0.0737572-3.1039581,1.0175438-7.0799809,0.2000694-10.0284653    c-0.0998001-0.3599606-0.4084625-0.706625-0.7857437-0.7857456c-1.6851883-0.3534069-4.078928-0.3083897-5.7615681,0.0543766    c-0.3886871,0.0837975-0.6701584,0.4243679-0.7857456,0.7857437c-1.0117168,3.163105-0.2926521,7.3358917-0.2932453,10.6439171    c-0.0007801,4.3450089-0.0015583,8.6900215-0.0023384,13.0350342    C28.7033329,50.178791,30.9533329,50.1811676,30.9535923,48.7310143L30.9535923,48.7310143z"/></g><g><path class="st0" d="M44.4562111,49.7341805c0.0004005-7.300457,0.0008011-14.6009178,0.0012016-21.9013748    c0.0001945-3.4915237,0.0003853-6.9830475,0.000576-10.4745712c0.000061-1.104826-0.5995407-5.1347418,0.0003128-5.7134018    c0.7703285-0.7431087,3.5886841-0.2824411,4.4816895-0.2769251c-0.375-0.375-0.75-0.75-1.125-1.125    c0.0721092,12.9970236,0.0869637,25.9941177,0.0445671,38.991272c-0.0047226,1.4479561,2.2452698,1.4499474,2.25,0    c0.0423965-12.9971542,0.0275421-25.9942493-0.0445671-38.991272c-0.0033875-0.6109161-0.5127335-1.1212187-1.125-1.125    c-1.8191338-0.0112352-4.7048492-0.6693735-6.1607285,0.6982889c-1.7862854,1.678051-0.5712624,7.3050137-0.5713768,9.4465065    c-0.0005569,10.1571598-0.0011177,20.3143196-0.0016747,30.4714775    C42.206131,51.1819534,44.456131,51.1843452,44.4562111,49.7341805L44.4562111,49.7341805z"/></g></g></svg>