<?xml version="1.0" ?><svg id="Layer_1" style="enable-background:new 0 0 52 52;" version="1.1" viewBox="0 0 52 52" xml:space="preserve" xmlns="http://www.w3.org/2000/svg" xmlns:xlink="http://www.w3.org/1999/xlink"><style type="text/css">
	.st0{fill:#231F20;}
</style><g><g><path class="st0" d="M33.7137146,11.2754707c3.6113205,2.2598009,5.0887909,6.0076141,5.225235,10.1299667    c0.1335831,4.0360069-0.8311615,6.1921597-3.4325333,9.5248928c-2.43256,3.1164608-5.0181484,6.3691654-5.5024414,10.425169    c-0.3877697,3.2476082,0.3260918,6.0447693-3.2012501,7.100872c-2.42239,0.7252769-2.085598-2.3763313-5.1180706-2.1592064    c0.375,0.375,0.75,0.75,1.125,1.125c0.1454086-3.4131546,1.1897335-7.6225471-0.625946-10.6749611    c-2.4101448-4.0517921-7.0514174-6.4702549-8.7166729-11.0085087c-2.2239513-6.0608444,0.0886602-10.9464006,4.8336163-14.7783365    c3.5730762-2.8855476,15.6807671-4.219202,17.4641266,1.442812c0.4334831,1.3762798,2.6063766,0.7885017,2.1696281-0.5981388    c-2.090313-6.6365576-7.0647926-5.2840929-13.145668-5.1649785c-5.5837364,0.109376-9.4677801,2.8333106-12.8176069,7.4611249    c-2.4548407,3.3913832-2.1025715,8.9405832-0.5990791,12.6993818c1.1662693,2.9157276,3.5378609,5.0287132,5.6166124,7.2854881    c1.5825672,1.7180977,3.3862915,3.4842796,3.8879433,5.8963165c0.4514389,2.1706161-0.2221546,5.2145996-0.3169537,7.4398003    c-0.0245743,0.5768166,0.536129,1.1671638,1.125,1.125c1.0479507-0.0750313,1.4274731,1.7246666,2.2249279,2.1102486    c1.2780437,0.6179466,3.5735855,0.0026398,4.8429127-0.0837708c0.5544682-0.0377464,0.879612-0.3350182,1.0848141-0.8259315    c0.4332409-1.0364494,1.6363831-1.1560135,2.1147366-2.096714c0.8204956-1.6135254,0.1227684-4.1137619,0.3578148-5.8308525    c0.777298-5.6784134,5.3586121-8.3212357,7.7419319-13.0531712c3.2128639-6.3789406,0.7678452-15.6983643-5.2024612-19.4343109    C33.6183205,8.5623512,32.4876595,10.5082617,33.7137146,11.2754707L33.7137146,11.2754707z"/></g><g><path class="st0" d="M21.8754768,43.9658661c2.9998951,0.06073,5.9997902,0.1214638,8.9996853,0.1821938    c1.4484348,0.0293236,1.4483051-2.2206764,0-2.25c-2.9998951-0.06073-5.9997902-0.1214638-8.9996853-0.1821938    C20.4270401,41.6865425,20.4271717,43.9365425,21.8754768,43.9658661L21.8754768,43.9658661z"/></g><g><path class="st0" d="M20.8183403,24.9201431c1.2304382,1.0661831,2.4548588,2.1398926,3.6915855,3.1987858    c0.6845703,0.586134,1.3884869,1.3003693,2.3721352,1.201088c1.9884434-0.200695,3.950201-3.0225487,5.0371418-4.4689884    c0.8700962-1.1578712-1.082468-2.280508-1.9428082-1.1356182c-0.5880356,0.782526-1.2291832,1.5125999-1.9451237,2.180439    c-0.6969738,0.6501465-0.9763432,1.3270092-1.9303551,0.6320896c-1.3010941-0.9477425-2.4758816-2.1453686-3.6915855-3.1987858    C21.3197327,22.3850117,19.7216206,23.9698296,20.8183403,24.9201431L20.8183403,24.9201431z"/></g><g><path class="st0" d="M25.2558517,28.6977367c-0.0082359,4.4768658-0.4934521,9.2838535,0.3475552,13.7020626    c0.2704525,1.4208107,2.4394169,0.8191833,2.1696281-0.5981407c-0.7996349-4.2008629-0.2750244-8.8416367-0.2671833-13.1039219    C27.5085163,27.2498589,25.2585201,27.2476921,25.2558517,28.6977367L25.2558517,28.6977367z"/></g><g><path class="st0" d="M5.0416665,25.7393951c1.3611112,0,2.7222223,0,4.0833335,0c1.4477673,0,1.4501657-2.25,0-2.25    c-1.3611112,0-2.7222223,0-4.0833335,0C3.593899,23.4893951,3.591501,25.7393951,5.0416665,25.7393951L5.0416665,25.7393951z"/></g><g><path class="st0" d="M9.6753912,9.1478357c0.5980816,0.6354609,1.0604916,1.3492689,1.4293709,2.1398916    c0.2568884,0.5505915,1.0493832,0.6901007,1.5392132,0.403595c0.5644436-0.3301468,0.6614475-0.986558,0.4035959-1.5392132    c-0.447134-0.9583464-1.0567961-1.8255968-1.7811899-2.5952635C10.2718878,6.5001993,8.6830339,8.0934591,9.6753912,9.1478357    L9.6753912,9.1478357z"/></g><g><path class="st0" d="M25.2807217,2.1953781c0.0678253,0.9448056,0.0824699,1.8888528,0.0439911,2.8352926    c-0.0588703,1.4479103,2.1912403,1.445231,2.25,0c0.0384808-0.9464555,0.0238323-1.8905025-0.0439911-2.8352926    c-0.0435104-0.606093-0.4859123-1.125-1.125-1.125C25.8305779,1.0703781,25.2369823,1.5860893,25.2807217,2.1953781    L25.2807217,2.1953781z"/></g><g><path class="st0" d="M42.1618996,7.6512623c-0.6491585,0.6325407-1.2579575,1.2998276-1.8284683,2.0041246    c-0.3821144,0.4717245-0.4612007,1.1297903,0,1.5909901c0.3950844,0.3950834,1.2065964,0.4745378,1.590992,0    c0.570507-0.7042971,1.1793098-1.3715839,1.8284683-2.0041246C44.7917709,8.2299671,43.2000809,6.6396599,42.1618996,7.6512623    L42.1618996,7.6512623z"/></g><g><path class="st0" d="M43.875,26.0727272c1.0277786,0,2.0555573,0,3.0833321,0c1.4477692,0,1.4501686-2.25,0-2.25    c-1.0277748,0-2.0555534,0-3.0833321,0C42.4272308,23.8227272,42.4248352,26.0727272,43.875,26.0727272L43.875,26.0727272z"/></g></g></svg>