<svg xmlns="http://www.w3.org/2000/svg" width="311.96701" height="459.99701"><path fill="#fff" fill-rule="evenodd" d="M172.683 61.711c-2.796-2.773-6-5.163-9.525-7.026-.763 6.166-4.015 11.808-9.021 16.324 2.557 1.53 5.424 2.798 8.532 3.776 4.374 1.361 9.249 2.127 14.364 2.127l4.255-.191.788-.095c-1.995-5.665-5.235-10.757-9.393-14.915m-11.831 18.905c-4.409-1.386-8.437-3.321-11.902-5.687-7.194 4.541-16.612 7.289-26.865 7.289-3.358 0-6.633-.287-9.763-.86-2.102-.36-4.146-.862-6.131-1.458-.813 3.154-1.242 6.477-1.242 9.87 0 10.971 4.447 20.891 11.616 28.061 7.183 7.194 17.1 11.616 28.061 11.616 10.958 0 20.876-4.422 28.046-11.616 7.183-7.17 11.629-17.09 11.629-28.061 0-2.437-.229-4.852-.646-7.17l-1.841.216-4.78.215c-5.738 0-11.21-.86-16.182-2.415zm-16.227-30.52c-10.96 0-20.878 4.445-28.048 11.615-3.538 3.537-6.407 7.745-8.414 12.406 1.662.477 3.406.906 5.21 1.217 2.785.502 5.701.766 8.712.766 9.895 0 18.811-2.845 25.241-7.408 6.022-4.303 9.775-10.158 9.87-16.563-3.943-1.318-8.174-2.033-12.571-2.033zm-26.364 98.543l24.594 23.662 26.565-23.758v26.268h-51.159zm57.039.455l54.771 21.51v115.705h-26.019v-92.162c0-1.697-1.374-3.061-3.059-3.061s-3.061 1.363-3.061 3.061v227.441h-51.147v-87.095c0-1.625-1.327-2.939-2.939-2.939-1.614 0-2.941 1.314-2.941 2.939v87.095H89.758V194.146c0-1.697-1.374-3.061-3.059-3.061-1.687 0-3.061 1.363-3.061 3.061v92.162H57.622V170.603l54.769-21.51v28.632c0 1.627 1.314 2.94 2.939 2.94h17.005v16.827l-8.723 67.519c-.204 1.603.932 3.061 2.534 3.275l33.27.024c1.612 0 2.939-1.314 2.939-2.941l-7.003-67.829v-16.875h17.005c1.614 0 2.94-1.313 2.94-2.94v-28.631zM51.602 440.756c-1.614 0-2.929-1.314-2.929-2.939 0-1.602 1.314-2.916 2.929-2.916h171.155c1.625 0 2.939 1.314 2.939 2.916 0 1.625-1.314 2.939-2.939 2.939zm88.959 19.241c-1.625 0-2.939-1.314-2.939-2.941 0-1.625 1.314-2.939 2.939-2.939h137.264c1.624 0 2.938 1.314 2.938 2.939 0 1.627-1.314 2.941-2.938 2.941zm151.317 0c-1.627 0-2.94-1.314-2.94-2.941 0-1.625 1.313-2.939 2.94-2.939h17.16c1.614 0 2.929 1.314 2.929 2.939 0 1.627-1.314 2.941-2.929 2.941zm-275.292-.599c-1.612 0-2.939-1.314-2.939-2.939 0-1.602 1.327-2.939 2.939-2.939h65.047c1.614 0 2.941 1.338 2.941 2.939 0 1.625-1.327 2.939-2.941 2.939zm132.89-278.732h-11.258v14.006h11.258zm.311 19.886h-11.939l-8.007 61.88h26.326zM143.847 0l42.556 30.902h47.491c.562-2.557 1.863-4.875 3.657-6.668 2.449-2.438 5.855-3.968 9.596-3.968 3.741 0 7.146 1.53 9.596 3.968l.168.191c2.365 2.438 3.824 5.761 3.824 9.418 0 3.729-1.53 7.122-3.992 9.584-2.475 2.484-5.855 3.99-9.596 3.99-3.741 0-7.146-1.528-9.596-3.967l-.191-.215c-1.697-1.746-2.917-3.992-3.466-6.453H194.48l42.783 31.07-17.853 54.901-.191.597h42.674c.563-2.582 1.865-4.875 3.656-6.668l.203-.191c2.439-2.343 5.762-3.776 9.394-3.776 3.754 0 7.159 1.505 9.609 3.968 2.45 2.461 3.979 5.855 3.979 9.609 0 3.727-1.529 7.122-3.979 9.582-2.45 2.462-5.855 3.992-9.609 3.992-3.751 0-7.146-1.53-9.597-3.968l-.179-.214c-1.696-1.77-2.927-3.992-3.478-6.454h-44.587l-8.663 26.674-35.722-14.03c-1.995-.766-4.325-.431-6.034 1.1l-23.863 21.344-21.894-21.058c-1.601-1.649-4.087-2.294-6.357-1.409l-35.72 14.054-8.663-26.674h-43.56c-.562 2.557-1.865 4.853-3.657 6.644-2.475 2.462-5.868 3.992-9.597 3.992-3.751 0-7.157-1.53-9.607-3.968-2.45-2.484-3.968-5.88-3.968-9.606 0-3.754 1.518-7.148 3.968-9.609 2.45-2.463 5.855-3.968 9.607-3.968 3.634 0 6.956 1.434 9.394 3.776l.204.191c1.804 1.793 3.095 4.086 3.657 6.668h41.647l-.191-.597-17.842-54.901 42.77-31.07H54.831c-.551 2.461-1.769 4.707-3.466 6.453l-.191.215c-2.439 2.438-5.856 3.967-9.597 3.967-3.729 0-7.123-1.506-9.584-3.967-2.475-2.485-4.004-5.879-4.004-9.607 0-3.657 1.458-6.98 3.825-9.418l.167-.191c2.45-2.438 5.856-3.968 9.597-3.968 3.741 0 7.157 1.53 9.597 3.968 1.792 1.793 3.093 4.111 3.657 6.668h46.462z" clip-rule="evenodd"/></svg>