<svg xmlns="http://www.w3.org/2000/svg" width="395.599" height="459.99701"><path fill="#fff" fill-rule="evenodd" d="M126.262 448.301c-1.963.418-3.897-.863-4.285-2.856-.386-1.964.894-3.867 2.857-4.285l100.761-20.442c1.964-.388 3.897.893 4.285 2.856.387 1.993-.893 3.897-2.856 4.285zm1.906-290.168c3.006 0 5.743 1.221 7.737 3.215l.089.089c1.934 1.993 3.125 4.7 3.125 7.647 0 3.006-1.222 5.773-3.215 7.736l-.298.269c-1.07 1.011-2.35 1.784-3.778 2.292v17.258c0 1.102-.478 2.114-1.251 2.769l-13.36 13.331 27.168 27.169c.714.714 1.072 1.638 1.072 2.588v46.335c0 2.022-1.637 3.66-3.66 3.66s-3.661-1.638-3.661-3.66v-44.816l-37.941-37.972c-.684-.654-1.072-1.575-1.072-2.588v-8.81c0-2.022 1.637-3.66 3.66-3.66 1.994 0 3.661 1.638 3.661 3.66v7.291l5.624 5.654 12.439-12.438V179.41c-1.548-.566-2.946-1.458-4.077-2.59-1.965-1.963-3.214-4.73-3.214-7.736 0-3.006 1.249-5.744 3.214-7.736 1.965-1.995 4.732-3.215 7.738-3.215zm-24.847 79.216c-5.208 4.82-15.505 14.045-15.535 14.075-1.548 1.309-3.838 1.072-5.119-.445-1.279-1.549-1.07-3.84.477-5.148.03-.03 10.295-9.195 15.058-13.6l-20.325-20.296c-.655-.685-1.07-1.577-1.07-2.589v-43.268c-1.548-.565-2.946-1.429-4.078-2.589l-.267-.269c-1.816-1.963-2.946-4.582-2.946-7.468 0-3.006 1.249-5.743 3.213-7.739 1.963-1.963 4.732-3.183 7.737-3.183 3.036 0 5.773 1.22 7.738 3.183 1.993 1.996 3.213 4.733 3.213 7.739 0 3.004-1.22 5.743-3.213 7.736-1.132 1.13-2.53 2.023-4.078 2.589v41.75l37.645 37.674c.714.684 1.071 1.637 1.071 2.56v40.56c0 2.023-1.636 3.66-3.661 3.66-2.023 0-3.661-1.637-3.661-3.66v-39.072zm70.674-56.808c0-2.023 1.637-3.661 3.66-3.661s3.661 1.638 3.661 3.661v32.525c0 1.011-.417 1.904-1.072 2.588l-15.593 15.563v57.403c0 2.023-1.637 3.66-3.66 3.66-1.994 0-3.631-1.637-3.631-3.66v-57.938l-15.057-15.028c-.655-.684-1.071-1.577-1.071-2.588v-32.525c0-2.023 1.636-3.661 3.659-3.661 2.025 0 3.661 1.638 3.661 3.661v31.008l8.809 8.777v-54.189c0-2.022 1.637-3.66 3.631-3.66 2.023 0 3.66 1.638 3.66 3.66v54.727l9.344-9.314v-31.009zm12.647-19.193c1.963-1.994 4.703-3.215 7.737-3.215 3.006 0 5.773 1.221 7.738 3.215 1.964 1.992 3.213 4.73 3.213 7.736 0 3.006-1.249 5.773-3.213 7.736-1.132 1.132-2.53 2.023-4.078 2.59v15.742l12.439 12.438 5.624-5.654v-7.291c0-2.022 1.667-3.66 3.661-3.66 2.022 0 3.66 1.638 3.66 3.66v8.81c0 1.013-.418 1.934-1.072 2.588l-37.941 37.972v44.816c0 2.022-1.636 3.66-3.661 3.66-2.023 0-3.659-1.638-3.659-3.66v-46.335c0-.95.356-1.874 1.07-2.588l27.168-27.169-13.36-13.331c-.773-.654-1.249-1.667-1.249-2.769V179.41c-1.548-.566-2.946-1.458-4.078-2.59-1.994-1.963-3.213-4.73-3.213-7.736 0-2.887 1.13-5.505 2.946-7.471zm37.644 70.941c4.761 4.492 15.027 14.046 15.058 14.076 1.428 1.428 1.428 3.749 0 5.178-1.429 1.428-3.75 1.428-5.179 0-.029-.029-9.909-9.314-14.998-14.135l-12.141 12.141v39.072c0 2.023-1.667 3.66-3.66 3.66-2.023 0-3.661-1.637-3.661-3.66v-40.56c0-.923.356-1.876 1.07-2.56l37.646-37.674v-41.75c-1.548-.565-2.946-1.429-4.077-2.589-1.995-1.993-3.214-4.732-3.214-7.736 0-3.006 1.219-5.743 3.214-7.739 1.964-1.963 4.701-3.183 7.737-3.183 2.856 0 5.475 1.101 7.438 2.917l.298.266c1.964 1.996 3.215 4.733 3.215 7.739 0 2.944-1.191 5.624-3.096 7.587l-.119.149c-1.159 1.13-2.528 2.023-4.076 2.589v43.268c0 1.012-.418 1.904-1.072 2.589zM204.08 43.238c-26.039-6.696-53.593-8.214-82.757-4.285l-6.249 23.3v.119l-.03.089-5.893 21.932c28.836-.416 56.749 3.065 83.681 10.326 26.99 7.291 53.058 18.36 78.232 33.092l12.171-45.441c-26.215-19.344-52.611-32.109-79.155-39.132zm-89.185-8.511l.03-.088.03-.061v-.089l.03-.03v-.029l.03-.03v-.03l.03-.029v-.06l.03-.06.03-.061.03-.059.03-.061.03-.057v-.031l.03-.029v-.029l.03-.03v-.03l.03-.029.03-.029v-.03l.03-.03v-.029l.03-.03.03-.03v-.029h.03l.03-.06.03-.06.058-.06.03-.06.06-.03.06-.117h.03l.03-.03v-.029l.03-.03h.03l.03-.03.03-.029.03-.029v-.03h.03l.03-.03.03-.029.03-.029.06-.061.03-.029h.03l.03-.03.03-.03.028-.029.06-.029.06-.061.06-.029.06-.029.03-.03h.03l.03-.028.03-.029.03-.03h.03l.03-.03h.03l.03-.029h.03l.03-.029h.03l.03-.03h.03l.03-.03H116.989l.03-.029h.06v-.03h.06l.03-.03h.06l.03-.029h.03l.03-.029h.06l.06-.03h.09l.03-.03h.03l.118-.029h.09l.03-.029h.12l.03-.03h.149l.535-.09c28.776-4.402 57.374-3.422 85.792 3.869l1.815.476 2.708.715c28.537 7.796 55.351 21.545 80.496 40.917 1.249.863 1.904 2.44 1.488 3.988l-4.465 16.604 32.317-20.592L218.543 0 92.785 17.318 110.462 51.3zm11.367 390.63c-1.963.389-3.897-.891-4.285-2.886-.386-1.964.894-3.868 2.857-4.256l100.761-20.473c1.964-.388 3.897.894 4.285 2.887.387 1.964-.893 3.867-2.856 4.285zm129.925-78.054l-.061-.029.209-24.967.029-.386v-1.729l1.041-.982.06-.029.03-.03.625-.595.178-.178.448-.417.356-.356c12.706-12.35 23.033-27.854 30.324-44.637 13.539-31.216 16.692-68.741 3.391-100.672-5.385-12.915-13.123-24.342-22.438-36.065-25.502-15.356-51.956-26.813-79.394-34.251-27.764-7.56-56.271-10.893-85.047-10.237-24.312 10.981-44.904 28.776-59.337 50.945-14.077 21.694-22.259 47.552-22.259 75.378 0 4.611.237 9.104.625 13.42.446 4.404 1.07 8.809 1.934 13.182.179.744.089 1.577-.267 2.321L0 302.814c3.957 2.738 7.826 5 11.606 6.846 4.492 2.202 8.956 3.867 13.301 5.029 1.577.445 2.708 1.844 2.708 3.541-.03 37.852 2.172 57.016 11.576 65.765 9.225 8.6 26.813 8.005 57.374 6.1l.476-.028c2.023 0 3.66 1.636 3.66 3.658v66.272l154.831-3.245zm50.706-151.914c.983 5.982 1.548 12.32 1.697 19.136v.208l.03.654v1.786l.029.774v.12c-.029 15.324-2.441 30.441-7.112 44.873-7.32 22.615-20.176 43.477-37.911 60.439l-.09 13.33.774-.952 2.499.952c2.381.924 4.881 1.728 7.47 2.441 2.588.685 5.148 1.25 7.677 1.636l2.678.388 4.314 28.806h8.898l4.346-28.806 2.647-.388c2.53-.386 5.089-.951 7.679-1.636 2.588-.684 5.087-1.518 7.498-2.441l2.5-.952 18.152 22.767 7.706-4.465-10.683-27.109 2.082-1.666c2.025-1.638 4.02-3.422 5.863-5.268 1.846-1.875 3.601-3.809 5.238-5.834l1.696-2.112 2.499.983 24.61 9.672 4.464-7.709-22.766-18.121.952-2.5c.924-2.412 1.757-4.91 2.441-7.498.685-2.591 1.249-5.148 1.636-7.68l.417-2.647 28.776-4.345v-8.898l-28.776-4.314-.417-2.678c-.387-2.529-.951-5.09-1.636-7.678-.685-2.588-1.518-5.089-2.441-7.47l-.952-2.499 22.766-18.152-4.464-7.707-27.109 10.652-1.696-2.082c-1.638-2.023-3.393-3.988-5.238-5.833-1.844-1.874-3.838-3.631-5.863-5.269l-2.082-1.694 10.683-27.109-7.736-4.435-18.122 22.765-2.5-.982c-2.113-.802-4.91-1.606-7.797-2.29z" clip-rule="evenodd"/></svg>