<svg xmlns="http://www.w3.org/2000/svg" width="422.586" height="459.99701"><path fill="#fff" fill-rule="evenodd" d="M46.701 116.966c6.293 0 11.396 5.101 11.396 11.396 0 6.294-5.103 11.395-11.396 11.395-6.268 0-11.371-5.101-11.371-11.395 0-6.296 5.103-11.396 11.371-11.396m-14.137 41.945c-1.846 0-3.337-1.491-3.337-3.337 0-1.845 1.492-3.338 3.337-3.338h28.297c1.846 0 3.337 1.493 3.337 3.338 0 1.846-1.492 3.337-3.337 3.337zm0 9.333c-1.846 0-3.337-1.49-3.337-3.337 0-1.845 1.492-3.337 3.337-3.337h28.297c1.846 0 3.337 1.492 3.337 3.337 0 1.847-1.492 3.337-3.337 3.337zm36.493 106.793c0 1.844-1.492 3.338-3.338 3.338s-3.337-1.494-3.337-3.338v-23.415c0-1.845 1.492-3.338 3.337-3.338 1.846 0 3.338 1.493 3.338 3.338zm-21.844-3.338c0 1.818-1.492 3.338-3.334 3.338-1.846 0-3.337-1.52-3.337-3.338V238.3c0-1.845 1.491-3.337 3.337-3.337 1.842 0 3.334 1.492 3.334 3.337zm153.46-183.792c1.277-.272 2.333-.868 3.12-1.817.814-.924 1.193-2.036 1.193-3.311 0-1.141-.323-2.117-1.003-2.93-.649-.814-1.762-1.439-3.31-1.9zm-3.688-27.077c-1.004.352-1.79.949-2.362 1.764-.597.813-.867 1.709-.867 2.684 0 .896.242 1.738.786 2.498.516.76 1.358 1.384 2.443 1.871zm0 26.67V76.864c-3.31-.949-5.724-2.388-7.272-4.286-1.547-1.928-2.306-4.262-2.306-7 0-2.795.867-5.129 2.604-7.002 1.762-1.898 4.071-2.982 6.974-3.255v-2.523h3.688v2.523c2.713.298 4.857 1.222 6.485 2.741 1.572 1.518 2.604 3.553 3.04 6.104l-6.43.841c-.407-2.008-1.439-3.364-3.095-4.069v9.931c4.099 1.084 6.893 2.522 8.356 4.258 1.495 1.764 2.225 4.018 2.225 6.756 0 3.066-.923 5.644-2.793 7.733-1.871 2.116-4.45 3.392-7.788 3.935v4.72h-3.688v-4.665c-2.931-.381-5.292-1.439-7.135-3.258-1.818-1.817-2.987-4.394-3.502-7.677l6.622-.788c.271 1.356.786 2.523 1.52 3.501.758.975 1.572 1.682 2.495 2.116zM32.673 449.821c-1.846 0-3.337-1.492-3.337-3.336 0-1.818 1.492-3.338 3.337-3.338h247.062c1.846 0 3.337 1.52 3.337 3.338 0 1.844-1.491 3.336-3.337 3.336zm144.669 10.176c-1.846 0-3.338-1.521-3.338-3.338 0-1.846 1.492-3.338 3.338-3.338H348.3c1.842 0 3.337 1.492 3.337 3.338 0 1.817-1.495 3.338-3.337 3.338zm188.457 0c-1.818 0-3.338-1.521-3.338-3.338 0-1.846 1.52-3.338 3.338-3.338h21.38c1.846 0 3.338 1.492 3.338 3.338 0 1.817-1.492 3.338-3.338 3.338zm-342.84-.327c-1.846 0-3.337-1.491-3.337-3.337 0-1.845 1.492-3.336 3.337-3.336h80.989c1.846 0 3.338 1.491 3.338 3.336 0 1.846-1.492 3.337-3.338 3.337zm179.314-341.809v40.29c2.66-10.853 7.57-20.132 14.922-27.456 16.636-16.66 43.36-20.866 75.539-14.463 6.401 32.179 2.197 58.903-14.435 75.563-15.926 15.927-41.135 20.459-71.496 15.195l11.886-12.399 35.867-5.644c1.871-.299 3.177-2.063 2.878-3.962-.302-1.872-2.063-3.175-3.934-2.876l-26.891 4.232 15.793-16.469c.105-.108.242-.244.352-.381l22.791-23.766c1.33-1.385 1.273-3.582-.109-4.912-1.354-1.302-3.556-1.275-4.882.109l-17.639 18.395-2.169-26.725c-.161-1.898-1.818-3.338-3.745-3.203-1.898.164-3.337 1.847-3.172 3.745l2.656 32.884-34.214 35.68v37.658h112.248l-14.624 39.342h-6.948l-20.674 130.264-87.337-.055c-1.846 0-3.337 1.491-3.337 3.31 0 1.844 1.492 3.337 3.337 3.337h86.281l-2.632 16.66H134.418c-5.998-31.527-13.242-69.458-23.037-121.01h101.15c1.843 0 3.338-1.493 3.338-3.312 0-1.844-1.495-3.337-3.338-3.337H110.486l-.379.028-4.938-25.885h-6.945l-14.625-39.342h111.729v-37.469l-9.412-9.821 1.411-21.489c.105-1.926-1.33-3.581-3.257-3.689-1.899-.109-3.555 1.33-3.664 3.255l-1.003 15.168-22.355-23.307c-1.331-1.384-3.527-1.438-4.914-.108-1.383 1.33-1.411 3.527-.081 4.911l8.058 8.382-11.367 4.287c-1.79.68-2.685 2.66-2.036 4.451.677 1.791 2.688 2.713 4.478 2.035l14.137-5.346 14.378 14.977.056.082.052.054.053.054.056.055.053.055 12.076 12.589c-20.215 3.257-36.983.054-47.673-10.636-11.368-11.396-14.27-29.709-9.876-51.74 22.033-4.396 40.345-1.492 51.741 9.875 4.124 4.152 7.138 9.171 9.089 14.951v-53.07c-21.815-1.764-38.962-20.053-38.962-42.327 0-23.441 18.994-42.435 42.437-42.435 23.439 0 42.461 18.993 42.461 42.435 0 22.274-17.175 40.563-38.991 42.326zM195.465 3.309c0-1.818 1.491-3.309 3.337-3.309 1.842 0 3.337 1.49 3.337 3.309v16.578c0 1.817-1.495 3.337-3.337 3.337-1.846 0-3.337-1.52-3.337-3.337zm63.978 33.101c1.572-.923 3.607-.381 4.531 1.222.895 1.572.351 3.608-1.25 4.53l-14.326 8.275c-1.6.896-3.636.354-4.53-1.221-.923-1.601-.379-3.637 1.221-4.531zm-124.566 5.752c-1.6-.922-2.141-2.958-1.218-4.53.895-1.603 2.927-2.145 4.531-1.222l14.326 8.275c1.601.895 2.141 2.931 1.222 4.531-.898 1.574-2.931 2.116-4.534 1.221zM227.373 19.1c.92-1.574 2.955-2.116 4.531-1.221 1.6.923 2.141 2.958 1.221 4.53l-5.046 8.765c-.898 1.572-2.931 2.117-4.535 1.221-1.571-.922-2.141-2.957-1.218-4.531zm34.319 52.798c1.847 0 3.338 1.493 3.338 3.338 0 1.844-1.491 3.338-3.338 3.338h-10.093c-1.843 0-3.338-1.494-3.338-3.338 0-1.845 1.495-3.338 3.338-3.338zm-125.783 6.676c-1.842 0-3.337-1.494-3.337-3.338 0-1.845 1.495-3.338 3.337-3.338h10.094c1.846 0 3.337 1.493 3.337 3.338 0 1.844-1.492 3.338-3.337 3.338zm28.571-56.165c-.923-1.572-.354-3.607 1.221-4.53 1.6-.896 3.636-.354 4.531 1.221l5.046 8.764c.923 1.574.379 3.609-1.221 4.531-1.572.896-3.608.352-4.531-1.221zm247.851 363.625h-19.562v34.513h19.562zm-32.803-16.659h-19.563v51.172h19.563zm-32.803-11.205h-19.533v62.377h19.533zm-32.8-8.846h-19.537v71.223h19.537zm-26.483 85.603c-1.847 0-3.338-1.493-3.338-3.338 0-1.844 1.491-3.337 3.338-3.337h131.834c1.818 0 3.31 1.493 3.31 3.337 0 1.845-1.491 3.338-3.31 3.338zm33.589-95.94c1.004 1.52.597 3.581-.923 4.611-1.52 1.032-3.579.625-4.611-.895l-12.455-18.667-.024-.026-.028-.028-.028-.026-.027-.054v-.029l-.025-.025v-.026h-.027l-.028-.055v-.028l-.024-.025-.028-.029-.028-.054v-.026l-.027-.028-.025-.054v-.027l-.027-.025v-.028l-.028-.026v-.028l-.028-.026v-.055l-.024-.027-.028-.055v-.026l-.027-.054v-.027l-.025-.055v-.082h-.027v-.055l-.029-.08-.027-.109v-.08h-.024c-.028-.244-.057-.516-.028-.788V321.627l.028-.054v-.081l.024-.083v-.08l.027-.081.029-.054V321.14l.108-.326.161-.325.028-.054c.108-.189.218-.381.351-.543h.028l.108-.137.028-.026h.024l.057-.054v-.029l.027-.025.025-.028.027-.026.109-.081.027-.028.025-.025h.027l.057-.055h.024l.028-.028.027-.026.029-.027.023-.027.057-.027h.028l.024-.026.028-.026.052-.028h.029l.056-.026.024-.027.028-.027h.028l.053-.027h.027l.028-.027.053-.027h.028l.053-.026h.027l.028-.028H304.56l.028-.025.027-.029h.081l.053-.025h.028l.056-.027h.081l.08-.027h.029l.052-.026h.028l.162-.028 20.161-3.825c1.79-.326 3.527.841 3.878 2.658.326 1.792-.867 3.556-2.66 3.88l-9.195 1.737 96.154 38.908c1.709.705 2.523 2.63 1.846 4.339-.705 1.711-2.632 2.523-4.341 1.847l-96.646-39.098zm-257.13-10.69c1.302 1.329 1.274 3.419-.028 4.721-1.302 1.275-3.418 1.248-4.72-.055l-9.388-9.549v60.097c0 1.846-1.492 3.337-3.337 3.337-1.843 0-3.337-1.491-3.337-3.337v-60.097l-9.413 9.549c-1.277 1.303-3.394 1.33-4.696.055-1.302-1.302-1.33-3.392-.028-4.721l14.951-15.193c.597-.706 1.52-1.168 2.523-1.168 1.003 0 1.927.462 2.523 1.168zm31.256 54.183c1.302 1.302 1.277 3.418-.028 4.721-1.302 1.275-3.418 1.247-4.692-.055l-9.416-9.551v60.098c0 1.845-1.492 3.338-3.338 3.338-1.842 0-3.337-1.493-3.337-3.338v-60.098l-9.384 9.551c-1.306 1.302-3.422 1.33-4.724.055-1.302-1.303-1.327-3.419-.025-4.721l14.947-15.194c.6-.706 1.52-1.167 2.523-1.167 1.004 0 1.927.461 2.523 1.167zm-75.29-157.611h4.503v33.399c0 1.847 1.491 3.338 3.337 3.338s3.337-1.491 3.337-3.338v-33.399h21.84v33.399c0 1.847 1.491 3.338 3.337 3.338s3.337-1.491 3.337-3.338v-33.399h14v-7.299H19.867zM78.606 98.598v44.93l14.813 13.621v50.818H78.606v3.336l-8.195 6.242H23.012l-8.191-6.242v-3.336H0v-50.819l14.821-13.621V98.598l31.687-41.894z" clip-rule="evenodd"/></svg>