<?xml version="1.0" encoding="UTF-8" standalone="no"?>
<svg
   xmlns:dc="http://purl.org/dc/elements/1.1/"
   xmlns:cc="http://creativecommons.org/ns#"
   xmlns:rdf="http://www.w3.org/1999/02/22-rdf-syntax-ns#"
   xmlns:svg="http://www.w3.org/2000/svg"
   xmlns="http://www.w3.org/2000/svg"
   xmlns:sodipodi="http://sodipodi.sourceforge.net/DTD/sodipodi-0.dtd"
   xmlns:inkscape="http://www.inkscape.org/namespaces/inkscape"
   data-name="Layer 1"
   viewBox="0 0 327.58748 118.26822"
   version="1.1"
   id="svg14"
   sodipodi:docname="digid-works-logo-small-bw.svg"
   width="327.58749"
   height="118.26823"
   inkscape:version="0.92.4 5da689c313, 2019-01-14"
   inkscape:export-filename="/home/bh2o/Projects/bh2o/com.digidworks.website/assets/img/digid-works-logo-small-bw.png"
   inkscape:export-xdpi="201.61"
   inkscape:export-ydpi="201.61">
  <metadata
     id="metadata20">
    <rdf:RDF>
      <cc:Work
         rdf:about="">
        <dc:format>image/svg+xml</dc:format>
        <dc:type
           rdf:resource="http://purl.org/dc/dcmitype/StillImage" />
        <dc:title></dc:title>
      </cc:Work>
    </rdf:RDF>
  </metadata>
  <defs
     id="defs18">
    <filter
       style="color-interpolation-filters:sRGB"
       inkscape:label="Drop Shadow"
       id="filter3772">
      <feFlood
         flood-opacity="0.498039"
         flood-color="rgb(0,0,0)"
         result="flood"
         id="feFlood3762" />
      <feComposite
         in="flood"
         in2="SourceGraphic"
         operator="in"
         result="composite1"
         id="feComposite3764" />
      <feGaussianBlur
         in="composite1"
         stdDeviation="1.2"
         result="blur"
         id="feGaussianBlur3766" />
      <feOffset
         dx="0"
         dy="0"
         result="offset"
         id="feOffset3768" />
      <feComposite
         in="SourceGraphic"
         in2="offset"
         operator="over"
         result="composite2"
         id="feComposite3770" />
    </filter>
    <filter
       style="color-interpolation-filters:sRGB"
       inkscape:label="Drop Shadow"
       id="filter3784">
      <feFlood
         flood-opacity="0.498039"
         flood-color="rgb(0,0,0)"
         result="flood"
         id="feFlood3774" />
      <feComposite
         in="flood"
         in2="SourceGraphic"
         operator="in"
         result="composite1"
         id="feComposite3776" />
      <feGaussianBlur
         in="composite1"
         stdDeviation="1.2"
         result="blur"
         id="feGaussianBlur3778" />
      <feOffset
         dx="0"
         dy="0"
         result="offset"
         id="feOffset3780" />
      <feComposite
         in="SourceGraphic"
         in2="offset"
         operator="over"
         result="composite2"
         id="feComposite3782" />
    </filter>
    <filter
       style="color-interpolation-filters:sRGB"
       inkscape:label="Drop Shadow"
       id="filter3796">
      <feFlood
         flood-opacity="0.498039"
         flood-color="rgb(0,0,0)"
         result="flood"
         id="feFlood3786" />
      <feComposite
         in="flood"
         in2="SourceGraphic"
         operator="in"
         result="composite1"
         id="feComposite3788" />
      <feGaussianBlur
         in="composite1"
         stdDeviation="1.2"
         result="blur"
         id="feGaussianBlur3790" />
      <feOffset
         dx="0"
         dy="0"
         result="offset"
         id="feOffset3792" />
      <feComposite
         in="SourceGraphic"
         in2="offset"
         operator="over"
         result="composite2"
         id="feComposite3794" />
    </filter>
    <filter
       style="color-interpolation-filters:sRGB"
       inkscape:label="Drop Shadow"
       id="filter3808">
      <feFlood
         flood-opacity="0.498039"
         flood-color="rgb(0,0,0)"
         result="flood"
         id="feFlood3798" />
      <feComposite
         in="flood"
         in2="SourceGraphic"
         operator="in"
         result="composite1"
         id="feComposite3800" />
      <feGaussianBlur
         in="composite1"
         stdDeviation="1.2"
         result="blur"
         id="feGaussianBlur3802" />
      <feOffset
         dx="0"
         dy="0"
         result="offset"
         id="feOffset3804" />
      <feComposite
         in="SourceGraphic"
         in2="offset"
         operator="over"
         result="composite2"
         id="feComposite3806" />
    </filter>
    <filter
       style="color-interpolation-filters:sRGB"
       inkscape:label="Drop Shadow"
       id="filter3820">
      <feFlood
         flood-opacity="0.498039"
         flood-color="rgb(0,0,0)"
         result="flood"
         id="feFlood3810" />
      <feComposite
         in="flood"
         in2="SourceGraphic"
         operator="in"
         result="composite1"
         id="feComposite3812" />
      <feGaussianBlur
         in="composite1"
         stdDeviation="1.2"
         result="blur"
         id="feGaussianBlur3814" />
      <feOffset
         dx="0"
         dy="0"
         result="offset"
         id="feOffset3816" />
      <feComposite
         in="SourceGraphic"
         in2="offset"
         operator="over"
         result="composite2"
         id="feComposite3818" />
    </filter>
  </defs>
  <sodipodi:namedview
     pagecolor="#ffffff"
     bordercolor="#666666"
     borderopacity="1"
     objecttolerance="10"
     gridtolerance="10"
     guidetolerance="10"
     inkscape:pageopacity="0"
     inkscape:pageshadow="2"
     inkscape:window-width="2560"
     inkscape:window-height="1367"
     id="namedview16"
     showgrid="false"
     inkscape:zoom="1.8101934"
     inkscape:cx="-0.50684195"
     inkscape:cy="194.40734"
     inkscape:window-x="0"
     inkscape:window-y="0"
     inkscape:window-maximized="1"
     inkscape:current-layer="svg14" />
  <path
     d="M 28.301,9.9292199 H 4.3610001 V 108.41922 H 47.971 v -23.94 h -19.67 v -50.62 h 19.67 V 9.9292199 Z"
     id="path2"
     style="fill:#fbffff;fill-opacity:1;stroke:none;stroke-opacity:1;filter:url(#filter3820)"
     inkscape:connector-curvature="0" />
  <path
     d="m 149.97983,59.349296 c 0,-21.659382 -15.12146,-39.420076 -39.00291,-39.420076 v 19.11641 c 11.5677,0.232638 19.67793,8.679797 19.67793,20.303666 0,11.623869 -8.11024,20.151248 -19.67793,20.375864 v 19.028168 c 24.17827,0 39.00291,-17.768715 39.00291,-39.404032 z"
     id="path4"
     inkscape:connector-curvature="0"
     style="fill:#fbffff;fill-opacity:1;stroke:none;stroke-width:0.80219936;stroke-opacity:1;filter:url(#filter3808)"
     sodipodi:nodetypes="sccsccs" />
  <path
     style="fill:#fbffff;fill-opacity:1;stroke:none;stroke-width:0.80219936;stroke-opacity:1;filter:url(#filter3796)"
     d="m 157.93771,19.849 v 37.888252 h 8.8806 v 8.863362 l 10.6213,-8.863362 h 82.17687 V 19.849 Z m 88.74643,10.729416 a 5.1902298,5.1902298 0 0 1 0.24913,0.01253 7.7572677,7.7572677 0 0 1 4.76619,1.604398 l -1.69371,2.710557 a 3.9067108,3.9067108 0 0 0 -2.69489,-1.131227 1.9974764,1.9974764 0 0 0 -1.6044,0.554646 1.4038489,1.4038489 0 0 0 -0.40893,1.010583 1.1230791,1.1230791 0 0 0 0.35253,0.88994 6.5218807,6.5218807 0 0 0 2.029,0.915009 l 1.2033,0.457504 a 6.4175948,6.4175948 0 0 1 2.19039,1.226801 4.0109968,4.0109968 0 0 1 1.25971,2.967511 5.7758353,5.7758353 0 0 1 -1.41952,4.010997 6.217045,6.217045 0 0 1 -4.54841,1.604398 6.8106725,6.8106725 0 0 1 -3.20879,-0.673722 10.211998,10.211998 0 0 1 -2.37527,-1.732876 l 1.92559,-2.654152 a 9.8269421,9.8269421 0 0 0 1.4916,1.226801 3.690117,3.690117 0 0 0 2.02273,0.585982 2.53495,2.53495 0 0 0 1.69213,-0.56248 1.6605527,1.6605527 0 0 0 0.57815,-1.298873 1.4118709,1.4118709 0 0 0 -0.55464,-1.154729 7.8374877,7.8374877 0 0 0 -1.87702,-0.955745 l -1.33178,-0.457505 a 5.4068236,5.4068236 0 0 1 -2.23738,-1.275371 3.9468208,3.9468208 0 0 1 -0.96359,-2.790463 4.933526,4.933526 0 0 1 1.39601,-3.609897 5.1902298,5.1902298 0 0 1 3.76187,-1.480622 z m -46.88322,0.05014 a 9.4980403,9.4980403 0 0 1 6.42073,2.343926 8.5514451,8.5514451 0 0 1 0,12.089395 8.5915551,8.5915551 0 0 1 -6.21705,2.350193 8.8241929,8.8241929 0 0 1 -6.25621,-2.358027 8.2145214,8.2145214 0 0 1 -2.50374,-5.975759 8.9605668,8.9605668 0 0 1 2.47867,-6.105802 9.4980403,9.4980403 0 0 1 6.0776,-2.343926 z m 17.89751,0.350962 a 5.7437474,5.7437474 0 0 1 3.51746,1.399149 4.8131961,4.8131961 0 0 1 1.43518,3.586395 4.3880305,4.3880305 0 0 1 -1.25187,3.273036 5.0538559,5.0538559 0 0 1 -2.23739,1.226801 l 4.93384,6.578975 h -4.5249 l -4.33219,-6.337689 v 6.337689 h -3.71331 V 30.999885 l 5.59818,-0.01567 a 5.7437474,5.7437474 0 0 1 0.575,-0.0047 z m -51.4661,0.0047 h 3.82612 l 3.42658,10.636976 3.44069,-10.636976 h 2.55073 l 3.41718,10.636976 3.41718,-10.636976 h 3.85119 l -5.46342,16.043987 h -3.12889 l -3.36862,-9.754869 -3.36861,9.754869 h -3.12889 z m 69.06123,0 h 4.53273 l -6.50533,7.603659 6.97849,8.455997 H 235.527 l -5.7517,-7.132054 v 7.132054 h -3.67414 V 30.999885 h 3.70547 v 6.674549 z m -18.90027,2.917372 a 3.6179191,3.6179191 0 0 0 -0.32902,0.0016 h -0.86487 v 4.372927 h 0.84137 a 3.0483575,3.0483575 0 0 0 2.21388,-0.698791 2.1579163,2.1579163 0 0 0 0.60165,-1.563661 1.9493444,1.9493444 0 0 0 -0.7458,-1.604399 3.6179191,3.6179191 0 0 0 -1.7172,-0.507642 z m -16.41219,0.130044 a 4.925504,4.925504 0 0 0 -3.51432,1.347444 4.917482,4.917482 0 0 0 -1.41952,3.634966 4.8131961,4.8131961 0 0 0 1.46809,3.609897 4.7249542,4.7249542 0 0 0 3.44225,1.322375 4.8131961,4.8131961 0 0 0 3.56133,-1.347444 4.8131961,4.8131961 0 0 0 1.40385,-3.584828 5.0618779,5.0618779 0 0 0 -1.40385,-3.609897 5.1501198,5.1501198 0 0 0 -3.53783,-1.372513 z"
     id="path10"
     inkscape:connector-curvature="0" />
  <path
     d="m 299.28648,108.339 h 23.94 V 9.849 h -43.61 v 23.94 h 19.67 v 50.62 h -19.67 v 23.93 z"
     id="path2-3"
     style="fill:#fbffff;fill-opacity:1;stroke:none;stroke-opacity:1;filter:url(#filter3784)"
     inkscape:connector-curvature="0" />
  <path
     d="M 87.175652,19.92922 H 67.971 v 79.008614 h 34.98391 V 79.733182 H 87.175652 V 39.12585 H 102.95491 V 19.92922 Z"
     id="path2-7"
     style="fill:#fbffff;fill-opacity:1;stroke:none;stroke-width:0.80219936;stroke-opacity:1;filter:url(#filter3772)"
     inkscape:connector-curvature="0" />
</svg>
