<svg xmlns="http://www.w3.org/2000/svg" data-name="Layer 1" viewBox="0 0 540.08 105.76">
  <path fill="#6d194e" d="M23.94 3.64H0v98.49H43.61V78.19H23.94V27.57h19.67V3.64H23.94z"/>
  <path fill="#ff6138" d="M199.67 42.86v20.43h28.88a28.58 28.58 0 1 1-26.6-39c8.63 0 17.52 3.84 22.76 9.88l20.65-13.08C235.71 8.28 219.22 0 202 0a52.88 52.88 0 0 0 0 105.76c28.3 0 50.26-22.24 51.66-50.2l.07-.18V42.86zM110.58 3.64h29.31v98.49h-29.31zM262.9 3.64h29.31v98.49H262.9zM101.41 52.88c0-27-18.85-49.14-48.62-49.14v23.83c14.42.29 24.53 10.82 24.53 25.31S67.21 78 52.79 78.28V102c30.14 0 48.62-22.15 48.62-49.12z"/>
  <path fill="#6d194e" d="M379.94 3.64H403.88v98.49H360.26V78.19h19.68V27.57h-19.68V3.64h19.68z"/>
  <path fill="#ff6138" d="M302.47 52.88c0-27 18.85-49.14 48.62-49.14v23.83c-14.43.29-24.54 10.82-24.54 25.31s10.11 25.12 24.54 25.4V102c-30.15 0-48.62-22.15-48.62-49.12z"/>
  <path fill="#6d194e" d="M540.08 3.64H413.33v47.23h11.07v11.05l13.24-11.05h102.44V3.64z"/>
  <path fill="#fff" d="M428.44 17.52l4.27 13.26L437 17.52h3.18l4.26 13.26 4.26-13.26h4.8l-6.81 20h-3.9l-4.2-12.16-4.2 12.16h-3.9l-6.82-20zM473.52 20a10.66 10.66 0 0 1 0 15.07 10.71 10.71 0 0 1-7.75 2.93 11 11 0 0 1-7.8-2.94 10.24 10.24 0 0 1-3.12-7.45 11.17 11.17 0 0 1 3.09-7.61 11.84 11.84 0 0 1 15.58 0zm-12.16 3a6.13 6.13 0 0 0-1.77 4.53 6 6 0 0 0 1.83 4.5 5.89 5.89 0 0 0 4.29 1.65 6 6 0 0 0 4.44-1.68 6 6 0 0 0 1.75-4.47 6.31 6.31 0 0 0-1.75-4.5 6.42 6.42 0 0 0-4.41-1.71 6.14 6.14 0 0 0-4.38 1.68zM487.11 17.52a7.16 7.16 0 0 1 5.1 1.74 6 6 0 0 1 1.79 4.47 5.47 5.47 0 0 1-1.56 4.08 6.3 6.3 0 0 1-2.79 1.53l6.15 8.2h-5.64l-5.4-7.9v7.9h-4.63v-20zm-2.4 9.09h1.05a3.8 3.8 0 0 0 2.76-.87 2.69 2.69 0 0 0 .75-1.95 2.43 2.43 0 0 0-.93-2 4.51 4.51 0 0 0-2.55-.63h-1.08zM502.92 25.86l6.84-8.34h5.65L507.3 27l8.7 10.54h-5.95l-7.17-8.89v8.89h-4.58v-20h4.62zM528.1 22.41a4.87 4.87 0 0 0-3.36-1.41 2.49 2.49 0 0 0-2 .69 1.75 1.75 0 0 0-.51 1.26 1.4 1.4 0 0 0 .44 1.11 8.13 8.13 0 0 0 2.53 1.14l1.5.57a8 8 0 0 1 2.73 1.53A5 5 0 0 1 531 31a7.2 7.2 0 0 1-1.77 5 7.75 7.75 0 0 1-5.67 2 8.49 8.49 0 0 1-4-.84A12.73 12.73 0 0 1 516.6 35l2.4-3.31a12.25 12.25 0 0 0 1.86 1.53 4.6 4.6 0 0 0 2.52.73 3.16 3.16 0 0 0 2.11-.7 2.07 2.07 0 0 0 .72-1.62 1.76 1.76 0 0 0-.69-1.44 9.77 9.77 0 0 0-2.34-1.19l-1.66-.57a6.74 6.74 0 0 1-2.79-1.59 4.92 4.92 0 0 1-1.2-3.48 6.15 6.15 0 0 1 1.74-4.5 6.47 6.47 0 0 1 5-1.83 9.67 9.67 0 0 1 5.94 2z"/>
</svg>
