<svg xmlns="http://www.w3.org/2000/svg" data-name="Layer 1" viewBox="0 0 327.58748 118.26822"><defs><filter id="e" color-interpolation-filters="sRGB"><feFlood flood-color="#000" flood-opacity=".498039" result="flood"/><feComposite in="flood" in2="SourceGraphic" operator="in" result="composite1"/><feGaussianBlur in="composite1" result="blur" stdDeviation="1.2"/><feOffset result="offset"/><feComposite in="SourceGraphic" in2="offset" result="composite2"/></filter><filter id="d" color-interpolation-filters="sRGB"><feFlood flood-color="#000" flood-opacity=".498039" result="flood"/><feComposite in="flood" in2="SourceGraphic" operator="in" result="composite1"/><feGaussianBlur in="composite1" result="blur" stdDeviation="1.2"/><feOffset result="offset"/><feComposite in="SourceGraphic" in2="offset" result="composite2"/></filter><filter id="c" color-interpolation-filters="sRGB"><feFlood flood-color="#000" flood-opacity=".498039" result="flood"/><feComposite in="flood" in2="SourceGraphic" operator="in" result="composite1"/><feGaussianBlur in="composite1" result="blur" stdDeviation="1.2"/><feOffset result="offset"/><feComposite in="SourceGraphic" in2="offset" result="composite2"/></filter><filter id="b" color-interpolation-filters="sRGB"><feFlood flood-color="#000" flood-opacity=".498039" result="flood"/><feComposite in="flood" in2="SourceGraphic" operator="in" result="composite1"/><feGaussianBlur in="composite1" result="blur" stdDeviation="1.2"/><feOffset result="offset"/><feComposite in="SourceGraphic" in2="offset" result="composite2"/></filter><filter id="a" color-interpolation-filters="sRGB"><feFlood flood-color="#000" flood-opacity=".498039" result="flood"/><feComposite in="flood" in2="SourceGraphic" operator="in" result="composite1"/><feGaussianBlur in="composite1" result="blur" stdDeviation="1.2"/><feOffset result="offset"/><feComposite in="SourceGraphic" in2="offset" result="composite2"/></filter></defs><path fill="#fbffff" d="M28.301 9.9292199H4.3610001V108.41922H47.971v-23.94h-19.67v-50.62h19.67V9.9292199z" filter="url(#a)"/><path fill="#fbffff" d="M149.97983 59.349296c0-21.659382-15.12146-39.420076-39.00291-39.420076v19.11641c11.5677.232638 19.67793 8.679797 19.67793 20.303666s-8.11024 20.151248-19.67793 20.375864v19.028168c24.17827 0 39.00291-17.768715 39.00291-39.404032z" filter="url(#b)"/><path fill="#fbffff" d="M157.93771 19.849v37.888252h8.8806v8.863362l10.6213-8.863362h82.17687V19.849zm88.74643 10.729416a5.1902298 5.1902298 0 0 1 .24913.01253 7.7572677 7.7572677 0 0 1 4.76619 1.604398l-1.69371 2.710557a3.9067108 3.9067108 0 0 0-2.69489-1.131227 1.9974764 1.9974764 0 0 0-1.6044.554646 1.4038489 1.4038489 0 0 0-.40893 1.010583 1.1230791 1.1230791 0 0 0 .35253.88994 6.5218807 6.5218807 0 0 0 2.029.915009l1.2033.457504a6.4175948 6.4175948 0 0 1 2.19039 1.226801 4.0109968 4.0109968 0 0 1 1.25971 2.967511 5.7758353 5.7758353 0 0 1-1.41952 4.010997 6.217045 6.217045 0 0 1-4.54841 1.604398 6.8106725 6.8106725 0 0 1-3.20879-.673722 10.211998 10.211998 0 0 1-2.37527-1.732876l1.92559-2.654152a9.8269421 9.8269421 0 0 0 1.4916 1.226801 3.690117 3.690117 0 0 0 2.02273.585982 2.53495 2.53495 0 0 0 1.69213-.56248 1.6605527 1.6605527 0 0 0 .57815-1.298873 1.4118709 1.4118709 0 0 0-.55464-1.154729 7.8374877 7.8374877 0 0 0-1.87702-.955745l-1.33178-.457505a5.4068236 5.4068236 0 0 1-2.23738-1.275371 3.9468208 3.9468208 0 0 1-.96359-2.790463 4.933526 4.933526 0 0 1 1.39601-3.609897 5.1902298 5.1902298 0 0 1 3.76187-1.480622zm-46.88322.05014a9.4980403 9.4980403 0 0 1 6.42073 2.343926 8.5514451 8.5514451 0 0 1 0 12.089395 8.5915551 8.5915551 0 0 1-6.21705 2.350193 8.8241929 8.8241929 0 0 1-6.25621-2.358027 8.2145214 8.2145214 0 0 1-2.50374-5.975759 8.9605668 8.9605668 0 0 1 2.47867-6.105802 9.4980403 9.4980403 0 0 1 6.0776-2.343926zm17.89751.350962a5.7437474 5.7437474 0 0 1 3.51746 1.399149 4.8131961 4.8131961 0 0 1 1.43518 3.586395 4.3880305 4.3880305 0 0 1-1.25187 3.273036 5.0538559 5.0538559 0 0 1-2.23739 1.226801l4.93384 6.578975h-4.5249l-4.33219-6.337689v6.337689h-3.71331V30.999885l5.59818-.01567a5.7437474 5.7437474 0 0 1 .575-.0047zm-51.4661.0047h3.82612l3.42658 10.636976 3.44069-10.636976h2.55073l3.41718 10.636976 3.41718-10.636976h3.85119l-5.46342 16.043987h-3.12889l-3.36862-9.754869-3.36861 9.754869h-3.12889zm69.06123 0h4.53273l-6.50533 7.603659 6.97849 8.455997H235.527l-5.7517-7.132054v7.132054h-3.67414V30.999885h3.70547v6.674549zm-18.90027 2.917372a3.6179191 3.6179191 0 0 0-.32902.0016h-.86487v4.372927h.84137a3.0483575 3.0483575 0 0 0 2.21388-.698791 2.1579163 2.1579163 0 0 0 .60165-1.563661 1.9493444 1.9493444 0 0 0-.7458-1.604399 3.6179191 3.6179191 0 0 0-1.7172-.507642zm-16.41219.130044a4.925504 4.925504 0 0 0-3.51432 1.347444 4.917482 4.917482 0 0 0-1.41952 3.634966 4.8131961 4.8131961 0 0 0 1.46809 3.609897 4.7249542 4.7249542 0 0 0 3.44225 1.322375 4.8131961 4.8131961 0 0 0 3.56133-1.347444 4.8131961 4.8131961 0 0 0 1.40385-3.584828 5.0618779 5.0618779 0 0 0-1.40385-3.609897 5.1501198 5.1501198 0 0 0-3.53783-1.372513z" filter="url(#c)"/><path fill="#fbffff" d="M299.28648 108.339h23.94V9.849h-43.61v23.94h19.67v50.62h-19.67v23.93z" filter="url(#d)"/><path fill="#fbffff" d="M87.175652 19.92922H67.971v79.008614h34.98391V79.733182H87.175652V39.12585h15.779258V19.92922z" filter="url(#e)"/></svg>