<svg xmlns="http://www.w3.org/2000/svg" width="459.99899" height="445"><path fill="#fff" fill-rule="evenodd" d="M18.26 211.738c0 1.947-1.574 3.521-3.52 3.521-1.932 0-3.506-1.573-3.506-3.521v-95.164c0-6.097 2.49-11.621 6.482-15.629 4.036-4.006 9.56-6.496 15.626-6.496h32c1.946 0 3.52 1.574 3.52 3.521 0 1.918-1.574 3.521-3.52 3.521h-32c-4.134 0-7.912 1.688-10.646 4.407-2.734 2.748-4.436 6.526-4.436 10.677zm154.053 38.953h19.132c1.946 0 3.52 1.574 3.52 3.521v45.334c0 1.947-1.574 3.521-3.52 3.521h-19.132c-1.932 0-3.522-1.574-3.522-3.521v-45.334c0-1.946 1.59-3.521 3.522-3.521zm32.084-29.308h19.118c1.932 0 3.52 1.574 3.52 3.521v74.644c0 1.947-1.588 3.521-3.52 3.521h-19.118c-1.946 0-3.521-1.574-3.521-3.521v-74.644c.001-1.947 1.575-3.521 3.521-3.521zm32.07 37.322h19.132c1.933 0 3.522 1.574 3.522 3.52v37.322c0 1.947-1.59 3.521-3.522 3.521h-19.132c-1.932 0-3.52-1.574-3.52-3.521v-37.322c0-1.946 1.588-3.52 3.52-3.52zm32.084-23.439h19.118c1.947 0 3.521 1.573 3.521 3.52v60.762c0 1.947-1.574 3.521-3.521 3.521h-19.118c-1.932 0-3.521-1.574-3.521-3.521v-60.762c0-1.947 1.589-3.52 3.521-3.52zm25.916 71.581c1.946 0 3.521 1.573 3.521 3.52 0 1.918-1.574 3.521-3.521 3.521H165.529c-1.946 0-3.52-1.603-3.52-3.521 0-1.946 1.574-3.52 3.52-3.52zM188.555 31.368c2.976 0 5.667 1.202 7.612 3.147l.23.259c1.804 1.917 2.92 4.522 2.92 7.355 0 2.976-1.202 5.667-3.15 7.614-1.144 1.145-2.532 2.031-4.092 2.576v4.378l5.71 5.724 12.464-12.479V31.227c0-1.948 1.574-3.522 3.521-3.522 1.946 0 3.52 1.574 3.52 3.522v20.147c0 1.06-.472 2.004-1.216 2.662L202.75 67.374l27.032 27.075c.674.687 1.016 1.574 1.016 2.461l.014 78.651c0 1.946-1.574 3.521-3.506 3.521-1.946 0-3.52-1.574-3.52-3.521V98.369c-12.508-12.535-25.014-25.043-37.521-37.579-.744-.628-1.216-1.603-1.216-2.66v-5.81c-1.56-.545-2.948-1.432-4.078-2.576l-.23-.258c-1.818-1.918-2.92-4.494-2.92-7.356 0-2.948 1.202-5.638 3.15-7.584 1.932-1.976 4.622-3.178 7.584-3.178zm108.532 3.148c1.945-1.945 4.636-3.147 7.598-3.147 2.82 0 5.41 1.116 7.342 2.92l.258.258c1.946 1.917 3.148 4.636 3.148 7.584 0 2.976-1.202 5.667-3.148 7.614-1.146 1.145-2.533 2.031-4.08 2.546v5.84c0 1.058-.471 2.032-1.215 2.66-12.508 12.536-25.015 25.044-37.522 37.579v77.192c0 1.946-1.574 3.521-3.521 3.521-1.945 0-3.52-1.574-3.52-3.521V96.91c.028-.887.356-1.774 1.03-2.461l27.046-27.075-13.336-13.338c-.746-.658-1.204-1.603-1.204-2.662V31.227c0-1.948 1.575-3.522 3.521-3.522 1.933 0 3.507 1.574 3.507 3.522v18.717l12.463 12.479 5.711-5.724V52.32c-1.561-.545-2.934-1.432-4.078-2.576-1.946-1.947-3.148-4.639-3.148-7.614 0-2.833 1.116-5.438 2.918-7.355zM42.102 427.512c-1.948 0-3.521-1.602-3.521-3.52 0-1.946 1.574-3.521 3.521-3.521h287.455c1.932 0 3.521 1.574 3.521 3.521 0 1.918-1.589 3.52-3.521 3.52zM210.421 445c-1.932 0-3.52-1.603-3.52-3.521 0-1.946 1.588-3.52 3.52-3.52h198.917c1.946 0 3.521 1.573 3.521 3.52 0 1.918-1.574 3.521-3.521 3.521zm219.281 0c-1.933 0-3.521-1.603-3.521-3.521 0-1.946 1.588-3.52 3.521-3.52h24.871c1.933 0 3.507 1.573 3.507 3.52 0 1.918-1.574 3.521-3.507 3.521zm-398.92-.544c-1.946 0-3.522-1.574-3.522-3.521 0-1.947 1.576-3.52 3.522-3.52h94.248c1.948 0 3.522 1.573 3.522 3.52s-1.574 3.521-3.522 3.521zm138.026-81.342v11.536h122.383v-18.576h165.371c1.904.059 3.437 1.632 3.437 3.52v22.782c0 1.776-1.347 3.264-3.092 3.492l-119.006 22.868-.659.058H122.756l-.888-.114L2.862 385.812C1.172 385.497 0 384.008 0 382.376v-22.782c0-1.918 1.574-3.52 3.52-3.52H168.807v7.04zM47.468 107.958h153.867v-4.064l-12.236-12.249c-5.124 4.693-15.312 13.939-15.355 13.967-1.416 1.316-3.648 1.202-4.936-.199-1.318-1.432-1.218-3.664.214-4.952.042-.028 10.46-9.302 15.212-13.683l-20.106-20.119c-.758-.658-1.216-1.603-1.216-2.662V20.922c-1.546-.543-2.948-1.432-4.08-2.576-1.96-1.945-3.162-4.636-3.162-7.584 0-2.978 1.202-5.668 3.148-7.613l.258-.23c1.946-1.83 4.522-2.918 7.356-2.918 2.976 0 5.652 1.202 7.598 3.148l.23.229c1.816 1.947 2.918 4.521 2.918 7.385 0 2.948-1.202 5.639-3.148 7.584-1.13 1.145-2.532 2.033-4.078 2.576v41.614c12.464 12.508 24.93 24.958 37.394 37.466.672.658 1.016 1.574 1.016 2.462l.014 72.925c0 1.918-1.588 3.521-3.52 3.521s-3.521-1.603-3.521-3.521v-38.123H56.282v196.57H403.7v-196.57H291.905v38.123c0 1.918-1.574 3.521-3.521 3.521-1.932 0-3.506-1.603-3.506-3.521v-72.925c.015-.888.358-1.804 1.017-2.462 12.479-12.508 24.93-24.958 37.407-37.466V20.922c-1.546-.543-2.948-1.432-4.093-2.576-1.932-1.945-3.147-4.636-3.147-7.584 0-2.863 1.116-5.438 2.918-7.385l.229-.229C321.156 1.202 323.846 0 326.822 0c2.947 0 5.653 1.202 7.6 3.148 1.932 1.945 3.147 4.636 3.147 7.613 0 2.948-1.216 5.639-3.147 7.584-1.131 1.145-2.534 2.033-4.078 2.576v43.074c0 1.06-.488 2.004-1.232 2.662L309.02 86.776c4.639 4.438 14.854 13.969 14.884 13.996 1.431 1.318 1.517 3.521.229 4.952-1.316 1.433-3.521 1.519-4.952.229-.027-.058-10.074-9.445-15.096-14.254l-12.18 12.192v4.064h120.608c6.097 0 11.62 2.489 15.628 6.497 4.007 4.037 6.496 9.561 6.496 15.627v218.98H25.344v-218.98c0-6.066 2.49-11.59 6.496-15.598 4.022-4.034 9.546-6.523 15.628-6.523z" clip-rule="evenodd"/></svg>