<?xml version="1.0" encoding="UTF-8"?>
<svg width="24px" height="24px" version="1.1" viewBox="0 0 24 24" xmlns="http://www.w3.org/2000/svg">
 <title>Pluralsight logo icon</title>
 <g class="iconFill---1kWqH" fill="#fff">
  <path d="m15.072 1.6849c-5.412-1.97-11.417 0.831-13.387 6.243s0.83 11.417 6.242 13.387 11.418-0.831 13.388-6.242c1.97-5.412-0.831-11.418-6.243-13.388m-3.572 21.315c-6.341 0-11.5-5.159-11.5-11.5s5.159-11.5 11.5-11.5 11.5 5.159 11.5 11.5-5.159 11.5-11.5 11.5"/>
  <path d="m8 5v13l11-6.5-11-6.5zm1 2 8 4.5-8 4.5v-9z"/>
  <path d="m6 6.5v10l8-5-8-5zm1 2.5 5 2.5-5 2.5v-5z"/>
 </g>
</svg>
