<?xml version="1.0" encoding="UTF-8"?>
<svg width="56.693px" height="56.693px" enable-background="new -1163 1657.697 56.693 56.693" version="1.1" viewBox="-1163 1657.7 56.693 56.693" xml:space="preserve" xmlns="http://www.w3.org/2000/svg"><g fill="#fff"><rect transform="matrix(-.8613 -.508 .508 -.8613 -2964.2 2556.6)" x="-1142.8" y="1680.8" width="19.246" height="4.1104"/><rect transform="matrix(-.9657 -.2596 .2596 -.9657 -2672 3027.4)" x="-1145.7" y="1688.1" width="19.246" height="4.1105"/><rect transform="matrix(-.9958 -.0918 .0918 -.9958 -2425.6 3282.9)" x="-1146.9" y="1695.1" width="19.246" height="4.1098"/><rect x="-1147.3" y="1701.3" width="19.247" height="4.111"/><path d="m-1121.5 1710.9s0 0.9601-0.0323 0.9601v0.0156h-30.795s-0.9598 0-0.9598-0.0156h-0.0326v-20.03h3.2877v16.805h25.245v-16.805h3.2877v19.07z"/><rect transform="matrix(.5634 .8262 -.8262 .5634 892.9 1662.8)" x="-1136.5" y="1674.2" width="19.247" height="4.111"/><rect transform="matrix(.171 .9853 -.9853 .171 721 2489)" x="-1128.3" y="1670.9" width="19.246" height="4.1108"/></g></svg>
